# xmcd CD database file generated by Grip 3.2.0
# 
# Track frame offsets:
#       150
#       15665
#       27748
#       39753
#       53093
#       66595
#       79140
#       93058
#       105330
#       114640
#       125200
#       135308
#       145960
#       161180
#       174968
#       186630
#       197053
#       208345
#       229803
#       247513
# 
# Disc length: 3547 seconds
# 
# Revision: 3
# Processed by: cddbd v1.5.2PL0 Copyright (c) Steve Scherf et al.
# Submitted via: Grip 3.2.0
# 
DISCID=190dd914
DTITLE=Various Artist - The Best Of The Charly Blues Masterworks Series [CD1]
DYEAR=1992
DGENRE=Blues
TTITLE0=Bessie Smith - Downhearted Blues
TTITLE1=Robert Johnson - Cross Road Blues
TTITLE2=T-Bone Walker - Bobby Sox Blues
TTITLE3=Howlin' Wolf - The Wolf Is At Your Door (Howlin' For My Baby)
TTITLE4=Walter Horton - Easy
TTITLE5=Muddy Waters - Got My Mojo Working
TTITLE6=Jimmy Rogers - Blues, Leave Me Alone
TTITLE7=Little Walter - Juke
TTITLE8=Guitar Jr. - I Got It Made (When I Marry Shirley Mae)
TTITLE9=Memphis Slim - Gotta Find My Baby
TTITLE10=John Lee Hooker - Dimples
TTITLE11=Jimmy Reed - Baby What You Want Me To Do
TTITLE12=Lightning Hopkins - Big Car Blues
TTITLE13=Albert King - Searching For A Woman
TTITLE14=Sonny Boy Williamson - Don't Start Me Talkin'
TTITLE15=Buddy Guy - First Time I Met The Blues
TTITLE16=Elmore James - Rollin' And Tumblin'
TTITLE17=Super Super Blues Band - Goin' Down Slow
TTITLE18=Walter 'Wolfman' Washington - Nobody's Fault But Mine
TTITLE19=John Mayall's Bluesbreakers - I Ain't Got You
EXTD=YEAR: 1992
EXTT0=
EXTT1=
EXTT2=
EXTT3=
EXTT4=
EXTT5=
EXTT6=
EXTT7=
EXTT8=
EXTT9=
EXTT10=
EXTT11=
EXTT12=
EXTT13=
EXTT14=
EXTT15=
EXTT16=
EXTT17=
EXTT18=
EXTT19=
PLAYORDER=
